<?xml version="1.0" encoding="UTF-8"?>
<svg id="Layer_1" xmlns="http://www.w3.org/2000/svg" xmlns:xlink="http://www.w3.org/1999/xlink" version="1.1" viewBox="0 0 559.7 182.7">
  <!-- Generator: Adobe Illustrator 29.3.1, SVG Export Plug-In . SVG Version: 2.1.0 Build 151)  -->
  <defs>
    <style>
      .st0 {
        fill: #54c0e8;
      }

      .st1 {
        fill: #fff;
      }
    </style>
  </defs>
  <g id="HFCtype">
    <path class="st1" d="M463.4,83.6c-1.5-.5-3-1-4.5-1.4-1.6-.5-3-1-4.3-1.7-1.4-.7-2.5-1.5-3.3-2.4-1-1.1-1.5-2.4-1.5-4s.9-4.1,2.7-5.5c1.7-1.3,3.9-2,6.6-2s4.1.4,6.3,1.3c1.7.7,3.4,1.7,5.1,2.9l6.1-12.1c-3.1-1.6-6.3-2.8-9.6-3.7-7.6-2-14.9-1.9-20.4.2-2.9,1.1-5.3,2.6-7.3,4.5s-3.5,4.3-4.6,7-1.6,5.8-1.6,9.2.5,6.1,1.5,8.3,2.4,4,4,5.4c1.7,1.4,3.6,2.6,5.8,3.5,2.3.9,4.6,1.8,6.9,2.5,2,.7,3.7,1.3,5.2,1.9,1.5.6,2.8,1.3,3.7,2,1,.8,1.8,1.7,2.2,2.7.5,1,.7,2.1.7,3.4,0,2.1-.9,4.1-2.6,5.7-1.7,1.6-4.2,2.4-7.6,2.4s-5.6-.7-8.5-1.9c-2.4-1.1-4.9-2.7-7.3-4.7l-6.6,12.7c7.1,4.8,14.9,7.3,23.2,7.3s7.9-.6,11.2-1.7h0c3.2-1.1,6-2.7,8.2-4.7s3.9-4.4,5-7.2,1.7-6,1.7-9.5c0-5.1-1.3-9.4-3.9-12.5-2.5-3.3-6.7-5.9-12.5-7.9Z"/>
    <path class="st1" d="M537,91.4c-2.6-3.2-6.9-5.8-12.6-7.8-1.5-.5-3-1-4.5-1.4-1.6-.5-3-1-4.3-1.7-1.4-.7-2.5-1.5-3.3-2.4-1-1.1-1.5-2.4-1.5-4s.9-4.1,2.7-5.5c1.7-1.3,3.9-2,6.6-2s4.1.4,6.3,1.3c1.7.7,3.4,1.7,5.1,2.9l6.1-12.1c-3.1-1.6-6.3-2.8-9.6-3.7-7.6-2-14.9-1.9-20.4.2-2.9,1.1-5.3,2.6-7.3,4.5s-3.5,4.3-4.6,7-1.6,5.8-1.6,9.2.5,6.1,1.5,8.3,2.4,4,4,5.4c1.7,1.4,3.6,2.6,5.8,3.5,2.3.9,4.6,1.8,6.9,2.5,2,.7,3.7,1.3,5.2,1.9,1.5.6,2.8,1.3,3.7,2,1,.8,1.8,1.7,2.3,2.7s.7,2.1.7,3.4c0,2.1-.9,4.1-2.6,5.7-1.7,1.6-4.2,2.4-7.6,2.4s-5.6-.7-8.5-1.9c-2.4-1.1-4.9-2.7-7.3-4.7l-6.6,12.7c7.1,4.8,14.9,7.3,23.2,7.3s7.9-.6,11.2-1.7h0c3.2-1.1,6-2.7,8.2-4.7s3.9-4.4,5-7.2,1.7-6,1.7-9.5c0-5.3-1.3-9.5-3.9-12.6Z"/>
    <polygon class="st1" points="350.1 55 350.1 125.7 365.3 125.7 365.3 94.5 383.6 114.4 401.4 94.6 401.7 125.7 416.7 125.7 416.7 55 383.6 92.6 350.1 55"/>
    <polygon class="st1" points="278.4 82.8 242.4 82.8 242.4 55.3 227.1 55.3 227.1 82.8 227.1 82.8 227.1 98.3 227.1 98.3 227.1 125.7 242.4 125.7 242.4 98.3 278.4 98.3 278.4 125.7 293.7 125.7 293.7 55.3 278.4 55.3 278.4 82.8"/>
    <rect class="st1" x="314.2" y="55.3" width="15.3" height="70.4"/>
  </g>
  <g id="HFCmark">
    <circle class="st0" cx="90.7" cy="175.8" r="6.9"/>
    <circle class="st0" cx="70.2" cy="173.3" r="6.7"/>
    <path class="st0" d="M50.9,159.5c-3.6,0-6.5,2.9-6.5,6.5s2.9,6.5,6.5,6.5,6.5-2.9,6.5-6.5-2.9-6.5-6.5-6.5Z"/>
    <circle class="st0" cx="33.9" cy="154.3" r="6.3"/>
    <circle class="st0" cx="20.2" cy="138.8" r="6.1"/>
    <circle class="st0" cx="10.6" cy="120.5" r="5.9"/>
    <circle class="st0" cx="5.7" cy="100.5" r="5.7"/>
    <path class="st0" d="M5.7,85.4c3.1,0,5.6-2.5,5.6-5.6s-2.5-5.6-5.6-5.6S0,76.7,0,79.8c0,3.1,2.5,5.6,5.6,5.6Z"/>
    <path class="st0" d="M10.6,65.2c3,0,5.4-2.4,5.4-5.4s-2.4-5.4-5.4-5.4-5.4,2.4-5.4,5.4c0,2.9,2.4,5.4,5.4,5.4Z"/>
    <circle class="st0" cx="20.2" cy="41.5" r="5.2"/>
    <circle class="st0" cx="33.9" cy="26" r="5.1"/>
    <circle class="st0" cx="50.9" cy="14.3" r="4.9"/>
    <path class="st0" d="M70.2,11.6c2.6,0,4.7-2.1,4.7-4.7s-2.1-4.7-4.7-4.7-4.7,2.1-4.7,4.7c0,2.6,2.2,4.7,4.7,4.7Z"/>
    <circle class="st0" cx="90.7" cy="154.4" r="6.9"/>
    <path class="st0" d="M70.9,144.6c-3.7,0-6.6,3-6.6,6.6s3,6.6,6.6,6.6,6.6-3,6.6-6.6-3-6.6-6.6-6.6Z"/>
    <circle class="st0" cx="53" cy="142.1" r="6.4" transform="translate(-98.5 136.7) rotate(-67.5)"/>
    <path class="st0" d="M38.8,121.7c-3.4,0-6.2,2.8-6.2,6.2s2.8,6.2,6.2,6.2,6.2-2.8,6.2-6.2c0-3.4-2.8-6.2-6.2-6.2Z"/>
    <path class="st0" d="M29.7,115.9c3.3,0,5.9-2.7,5.9-5.9s-2.7-5.9-5.9-5.9-5.9,2.7-5.9,5.9,2.6,5.9,5.9,5.9Z"/>
    <circle class="st0" cx="26.5" cy="90.1" r="5.7"/>
    <circle class="st0" cx="29.7" cy="70.3" r="5.4"/>
    <path class="st0" d="M33.6,52.4c0,2.9,2.3,5.2,5.2,5.2s5.2-2.3,5.2-5.2-2.3-5.2-5.2-5.2c-2.9,0-5.2,2.3-5.2,5.2Z"/>
    <path class="st0" d="M48,38.2c0,2.7,2.2,5,5,5s5-2.2,5-5-2.2-5-5-5-5,2.2-5,5Z"/>
    <path class="st0" d="M70.9,24.3c-2.6,0-4.7,2.1-4.7,4.7s2.1,4.7,4.7,4.7,4.7-2.1,4.7-4.7c.1-2.6-2.1-4.7-4.7-4.7Z"/>
    <circle class="st0" cx="90.7" cy="132.8" r="6.9"/>
    <path class="st0" d="M70.9,121.2c-3.7,0-6.7,3-6.7,6.7s3,6.7,6.7,6.7,6.7-3,6.7-6.7-3-6.7-6.7-6.7Z"/>
    <path class="st0" d="M55.6,108c-3.5,0-6.3,2.8-6.3,6.3s2.8,6.3,6.3,6.3,6.3-2.8,6.3-6.3-2.8-6.3-6.3-6.3Z"/>
    <path class="st0" d="M48.4,101.2c3.3,0,5.9-2.7,5.9-5.9s-2.7-5.9-5.9-5.9-5.9,2.7-5.9,5.9,2.6,5.9,5.9,5.9Z"/>
    <path class="st0" d="M50.8,80.5c3,0,5.5-2.5,5.5-5.5s-2.5-5.5-5.5-5.5-5.5,2.5-5.5,5.5,2.5,5.5,5.5,5.5Z"/>
    <circle class="st0" cx="62.4" cy="58.2" r="5.1"/>
    <path class="st0" d="M80.5,44.1c-2.6,0-4.6,2.1-4.6,4.6s2.1,4.6,4.6,4.6,4.6-2.1,4.6-4.6-2-4.6-4.6-4.6Z"/>
    <path class="st0" d="M90.8,9c2.5,0,4.5-2,4.5-4.5s-2-4.5-4.5-4.5-4.5,2-4.5,4.5,1.9,4.5,4.5,4.5Z"/>
    <path class="st0" d="M111.3,11.3c2.4,0,4.4-2,4.4-4.4s-2-4.4-4.4-4.4-4.4,2-4.4,4.4,2,4.4,4.4,4.4Z"/>
    <path class="st0" d="M130.6,18.4c2.3,0,4.2-1.9,4.2-4.2s-1.9-4.2-4.2-4.2-4.2,1.9-4.2,4.2,1.9,4.2,4.2,4.2Z"/>
    <path class="st0" d="M147.6,29.9c2.2,0,3.9-1.8,3.9-3.9s-1.8-3.9-3.9-3.9-3.9,1.8-3.9,3.9,1.7,3.9,3.9,3.9Z"/>
    <path class="st0" d="M161.3,37.7c-2.1,0-3.8,1.7-3.8,3.8s1.7,3.8,3.8,3.8,3.8-1.7,3.8-3.8-1.7-3.8-3.8-3.8Z"/>
    <path class="st0" d="M170.9,63.4c2,0,3.6-1.6,3.6-3.6s-1.6-3.6-3.6-3.6-3.6,1.6-3.6,3.6,1.6,3.6,3.6,3.6Z"/>
    <path class="st0" d="M172.4,79.8c0,1.9,1.5,3.4,3.4,3.4s3.4-1.5,3.4-3.4-1.5-3.4-3.4-3.4-3.4,1.5-3.4,3.4Z"/>
    <circle class="st0" cx="175.8" cy="100.5" r="3.3"/>
    <path class="st0" d="M170.9,117.4c-1.7,0-3.1,1.4-3.1,3.1s1.4,3.1,3.1,3.1,3.1-1.4,3.1-3.1-1.4-3.1-3.1-3.1Z"/>
    <path class="st0" d="M161.3,135.9c-1.6,0-2.9,1.3-2.9,2.9s1.3,2.9,2.9,2.9,2.9-1.3,2.9-2.9-1.3-2.9-2.9-2.9Z"/>
    <circle class="st0" cx="147.5" cy="154.3" r="2.8"/>
    <path class="st0" d="M130.6,163.4c-1.4,0-2.6,1.2-2.6,2.6s1.2,2.6,2.6,2.6,2.6-1.2,2.6-2.6-1.2-2.6-2.6-2.6Z"/>
    <circle class="st0" cx="111.2" cy="173.3" r="2.4"/>
    <path class="st0" d="M90.8,21.4c-2.5,0-4.6,2-4.6,4.6s2,4.6,4.6,4.6,4.6-2,4.6-4.6-2.1-4.6-4.6-4.6Z"/>
    <path class="st0" d="M110.6,24.7c-2.4,0-4.3,1.9-4.3,4.3s1.9,4.3,4.3,4.3,4.3-1.9,4.3-4.3-1.9-4.3-4.3-4.3Z"/>
    <path class="st0" d="M128.5,42.3c2.2,0,4.1-1.8,4.1-4.1s-1.8-4.1-4.1-4.1-4.1,1.8-4.1,4.1,1.9,4.1,4.1,4.1Z"/>
    <circle class="st0" cx="142.7" cy="52.4" r="3.8"/>
    <path class="st0" d="M148.2,70.3c0,2,1.6,3.6,3.6,3.6s3.6-1.6,3.6-3.6-1.6-3.6-3.6-3.6-3.6,1.6-3.6,3.6Z"/>
    <path class="st0" d="M155,86.8c-1.9,0-3.4,1.5-3.4,3.4s1.5,3.4,3.4,3.4,3.4-1.5,3.4-3.4-1.6-3.4-3.4-3.4Z"/>
    <circle class="st0" cx="151.8" cy="110" r="3.1"/>
    <path class="st0" d="M142.7,125c-1.6,0-2.9,1.3-2.9,2.9s1.3,2.9,2.9,2.9,2.9-1.3,2.9-2.9-1.3-2.9-2.9-2.9Z"/>
    <path class="st0" d="M131.2,142.1c0-1.5-1.2-2.7-2.7-2.7s-2.7,1.2-2.7,2.7,1.2,2.7,2.7,2.7,2.7-1.2,2.7-2.7Z"/>
    <circle class="st0" cx="110.5" cy="151.2" r="2.5"/>
    <circle class="st0" cx="100.9" cy="48.7" r="4.4"/>
    <path class="st0" d="M119,54.2c-2.2,0-4,1.8-4,4s1.8,4,4,4,4-1.8,4-4-1.8-4-4-4Z"/>
    <path class="st0" d="M130.6,71.3c-2,0-3.6,1.6-3.6,3.6s1.6,3.6,3.6,3.6,3.6-1.6,3.6-3.6-1.6-3.6-3.6-3.6Z"/>
    <path class="st0" d="M133.1,91.8c-1.9,0-3.4,1.5-3.4,3.4s1.5,3.4,3.4,3.4,3.4-1.5,3.4-3.4-1.5-3.4-3.4-3.4Z"/>
    <path class="st0" d="M128.9,114.3c0-1.7-1.4-3.1-3-3.1s-3,1.4-3,3.1,1.4,3,3,3,3-1.3,3-3Z"/>
    <circle class="st0" cx="110.6" cy="127.9" r="2.7"/>
  </g>
  <path class="st1" d="M549.1,60.2c0-3,2.4-5.5,5.3-5.5s5.3,2.4,5.3,5.5-2.4,5.4-5.3,5.4c-2.9,0-5.3-2.4-5.3-5.4ZM558.8,60.2c0-2.5-2-4.6-4.4-4.6s-4.4,2.1-4.4,4.6,2,4.6,4.4,4.6c2.4-.1,4.4-2.1,4.4-4.6ZM552.8,57.5c.4-.1.8-.1,1.4-.1,1.5,0,2.2.7,2.2,1.7s-.4,1.2-1,1.5l1.4,2.1h-1.1l-1.1-1.9h-.8v1.9h-.9v-5.2h-.1ZM553.7,60.1h.5c.8,0,1.2-.4,1.2-1s-.4-.9-1.1-.9h-.6v1.9h0Z"/>
</svg>